<svg width="48" height="48" viewBox="0 0 48 48" fill="none" xmlns="http://www.w3.org/2000/svg">
<g clip-path="url(#clip0_3005_1144)">
<path d="M9.85796 11.2721C9.46743 10.8816 9.46743 10.2484 9.85796 9.85786C10.2485 9.46734 10.8816 9.46734 11.2722 9.85786L38.1422 36.7279C38.5328 37.1184 38.5328 37.7516 38.1422 38.1421C37.7517 38.5327 37.1185 38.5327 36.728 38.1421L9.85796 11.2721Z" fill="white"/>
<path d="M11.2722 38.1421C10.8816 38.5327 10.2485 38.5327 9.85796 38.1421C9.46743 37.7516 9.46743 37.1184 9.85796 36.7279L36.728 9.85786C37.1185 9.46734 37.7517 9.46734 38.1422 9.85786C38.5328 10.2484 38.5328 10.8816 38.1422 11.2721L11.2722 38.1421Z" fill="white"/>
</g>
<defs>
<clipPath id="clip0_3005_1144">
<rect width="48" height="48" fill="white"/>
</clipPath>
</defs>
</svg>
